<svg width="35" height="48" viewBox="0 0 35 48" fill="none" xmlns="http://www.w3.org/2000/svg">
<path d="M16.4706 35.3548V1.03226C2.83088 2.32258 0 13.0065 0 15.4839C0 18.5806 1.54412 19.6129 1.80147 22.1935C2.00735 24.2581 2.57353 24.9462 2.83088 25.0323C3.08824 24.6021 3.60294 23.4323 3.60294 22.1935C3.60294 20.6452 3.08824 20.129 3.08824 19.0968C3.08824 18.271 3.94608 17.2043 4.375 16.7742C4.54657 17.8925 4.88971 20.4903 4.88971 21.9355C4.88971 23.7419 4.375 26.3226 2.83088 28.3871C1.28676 30.4516 1.02941 30.7097 0.772059 32C0.514706 33.2903 1.02941 34.3226 2.31618 34.5806C3.60294 34.8387 4.11765 33.8064 4.63235 33.2903C5.14706 32.7742 4.375 30.7097 4.63235 29.9355C4.88971 29.1613 5.40441 28.6452 6.94853 28.6452C8.49265 28.6452 9.00735 29.4194 10.2941 30.1935C11.5809 30.9677 13.125 30.4516 13.8971 30.7097C14.6691 30.9677 15.1838 30.7097 15.1838 32.2581C15.1838 33.8064 8.49265 35.6129 6.94853 35.3548C5.40441 35.0968 6.17647 34.5806 5.40441 34.3226C4.63235 34.0645 4.88971 36.129 3.60294 35.871L2.31618 35.6129C2.40196 36.6452 2.93382 39.0194 4.375 40.2581C6.17647 41.8064 7.97794 39.4839 9.00735 39.7419C10.0368 40 10.0368 40 10.2941 41.5484C10.5 42.7871 10.0368 43.6129 9.77941 43.871V45.4194C10.1225 45.1613 10.9632 44.6968 11.5809 44.9032C12.1985 45.1097 12.3529 46.3656 12.3529 46.9677C12.4387 46.1075 12.8676 44.4903 13.8971 44.9032C15.1838 45.4194 15.9559 47.7419 15.9559 46.9677C15.9559 46.3484 16.299 45.6774 16.4706 45.4194V38.7097L15.1838 40.2581V37.1613C15.1838 36.7484 16.0417 35.7849 16.4706 35.3548Z" fill="white"/>
<path d="M20.0735 0H17.7574V34.0645C18.0147 34.1505 18.5809 34.4774 18.7868 35.0968C18.9926 35.7161 19.2157 36.7312 19.3015 37.1613L19.0441 38.9677L18.0147 37.6774V44.3871L19.3015 45.9355L20.0735 44.3871L19.8162 41.0323L19.3015 40.7742L20.0735 40.2581V32C19.8162 31.828 19.3015 31.3806 19.3015 30.9677C19.3015 30.5548 19.8162 30.2796 20.0735 30.1935V0Z" fill="white"/>
<path d="M23.1618 3.09677C22.75 2.68387 21.9608 2.4086 21.6176 2.32258V31.4839C21.7892 31.6559 22.2353 32 22.6471 32C23.0588 32 23.848 31.3118 24.1912 30.9677V4.3871C24.0196 4.12903 23.5735 3.50968 23.1618 3.09677Z" fill="white"/>
<path d="M22.6471 35.871L21.6176 35.3548V38.9677H23.1618C23.5735 38.9677 23.848 38.7957 23.9338 38.7097V35.871C23.6765 35.957 23.0588 36.0774 22.6471 35.871Z" fill="white"/>
<path d="M23.9338 44.9032V40H21.875V48C22.0466 47.5699 22.75 46.5548 23.1618 45.9355C23.5735 45.3161 23.848 44.9892 23.9338 44.9032Z" fill="white"/>
<path d="M26.5074 34.3226L25.4779 33.8064C25.4779 35.4409 25.7353 38.1935 25.7353 38.1935C25.9412 37.7806 26.9577 37.6774 27.4403 37.6774L27.5368 34.3226C27.3652 34.4086 26.9191 34.529 26.5074 34.3226Z" fill="white"/>
<path d="M25.4779 28.6452V1.80645L27.5368 3.35484L27.4403 9.80645C27.1293 10.0645 26.5074 10.7355 26.5074 11.3548C26.5074 11.9742 27.1936 12.129 27.5368 12.129V27.871C27.3652 27.871 26.9191 27.9226 26.5074 28.129L25.4779 28.6452Z" fill="white"/>
<path d="M29.3382 10.2115V6.45161L31.1397 9.03226C30.9681 9.11828 30.4706 9.39355 29.8529 9.80645C29.5543 10.0061 29.4041 10.1334 29.3382 10.2115V10.3226C29.2939 10.3226 29.2679 10.295 29.3382 10.2115Z" fill="white"/>
<path d="M29.0809 31.2258L29.3382 11.3548L31.1397 10.3226V18.5806L30.3676 19.0968V24.2581C30.3676 26.7355 31.2255 28.043 31.6544 28.3871V40.7742C31.3971 40.9462 30.7794 41.3419 30.3676 41.5484C29.9559 41.7548 29.3382 41.9785 29.0809 42.0645V40L30.3676 40.2581C30.4534 40.086 30.5735 39.5355 30.3676 38.7097C30.1618 37.8839 29.424 37.6774 29.0809 37.6774V35.871C29.1667 35.6129 29.4412 34.8903 29.8529 34.0645C30.3676 33.0323 29.8529 33.2903 29.8529 32C29.8529 30.9677 29.3382 31.0538 29.0809 31.2258Z" fill="white"/>
<path d="M32.6838 33.2903V28.129C33.1127 28.8172 34.0221 30.3484 34.2279 30.9677C34.4338 31.5871 33.2843 32.7742 32.6838 33.2903Z" fill="white"/>
<path d="M35 16.7742C35 17.1871 33.4559 20.3871 32.6838 21.9355V12.9032C32.8554 12.9032 33.25 12.7484 33.4559 12.129C33.6618 11.5097 33.027 10.3226 32.6838 9.80645V8.25806L35 12.129V16.7742Z" fill="white"/>
</svg>
