<svg width="47" height="48" viewBox="0 0 47 48" fill="none" xmlns="http://www.w3.org/2000/svg">
<path fill-rule="evenodd" clip-rule="evenodd" d="M15.2499 14.0211C9.90427 15.4449 5.69486 19.6543 4.271 25H7.93277C9.13791 21.5904 11.8403 18.888 15.2499 17.6828V14.0211ZM23.2499 17.6828V14.0211C28.5956 15.4449 32.805 19.6543 34.2289 25H30.5671C29.362 21.5904 26.6596 18.888 23.2499 17.6828ZM23.2499 40.3172C26.6596 39.112 29.362 36.4097 30.5671 33H34.2289C32.805 38.3457 28.5956 42.5551 23.2499 43.979V40.3172ZM7.93277 33C9.13791 36.4097 11.8403 39.112 15.2499 40.3172V43.979C9.90427 42.5551 5.69486 38.3457 4.271 33H7.93277Z" fill="white"/>
<rect x="17.25" y="9.5" width="4" height="10.5" fill="white"/>
<rect x="17.25" y="37" width="4" height="11" fill="white"/>
<rect x="0.25" y="27" width="10.5" height="4" fill="white"/>
<rect x="27.25" y="27" width="10.5" height="4" fill="white"/>
<path d="M22.75 9V12C22.75 12 26.75 12.75 30 15.5C33.8865 18.7886 35.3333 23.3333 35.75 25H38.25L37.25 22.5L46.5 21.5L38.75 17.5L37.5 16L37.25 14.75L36.25 14.25L35.25 14.75L33.75 15.5L33.25 14.5L32.75 16H31.75V14.75L33.5 13.5L34.5 14.25L35.75 12.75L38 12.5L38.75 14.75L39.5 16L45 10.5L35.75 12L37.25 2.25L30.5 9.25L26.5 0L25.25 6.5L26.25 7.75L25.25 8.5L26.75 9.5L25.25 9.75V10.5L22.75 9Z" fill="white"/>
</svg>
