<svg width="39" height="38" viewBox="0 0 51 49" fill="none" xmlns="http://www.w3.org/2000/svg">
<path fill-rule="evenodd" clip-rule="evenodd" d="M5.96456 9.80145C4.55035 8.38723 1.36837 3.79104 2.42903 0.609058C6.10598 -0.23947 10.0894 2.61253 11.6214 4.14459L25.32 17.8431L39.1986 3.96454C40.6128 2.55032 45.209 -0.631659 48.391 0.429002C49.2395 4.10596 46.3875 8.08932 44.8554 9.62139L30.9768 23.5L36.6669 29.19H37.3268L37.3268 25.9901H43.7268V32.3901L40.5267 32.39V34.4641L45.209 39.1464L45.5625 38.7928C46.7411 38.5571 49.2395 38.2271 49.8052 38.7928C50.3709 39.3585 50.748 42.5641 50.5123 44.4497C50.5123 44.4497 48.1081 44.0254 46.9768 45.1568C45.8454 46.2882 46.2696 48.6923 46.2696 48.6923C44.6197 48.6923 41.1785 48.5509 40.6128 47.9852C40.0471 47.4195 40.6128 44.6854 40.9663 43.389L36.3673 38.79H34.1267L34.1267 41.9901L27.7267 41.9901L27.7267 35.5901L33.1675 35.5901L33.1674 35.59H30.9268V34.7636L25.32 29.1569L19.81 34.6668V35.3267H23.01L23.01 41.7267L16.61 41.7267L16.61 38.5267H14.5359L9.85365 43.209L10.2072 43.5625C10.4429 44.741 10.7729 47.2395 10.2072 47.8052C9.64151 48.3708 6.43596 48.748 4.55035 48.5123C4.55035 48.5123 4.97461 46.1081 3.84324 44.9767C2.71187 43.8454 0.307706 44.2696 0.307706 44.2696C0.307706 42.6197 0.449128 39.1785 1.01481 38.6128C1.5805 38.0471 4.31464 38.6128 5.61101 38.9663L10.21 34.3673V32.1267L7.0099 32.1267L7.0099 25.7267L13.4099 25.7267L13.4099 31.1674L13.41 31.1673V28.9267H14.2364L19.6631 23.5L5.96456 9.80145Z" fill="white"/>
</svg>
